<?xml version="1.0" encoding="utf-8" standalone="no"?>
<!DOCTYPE svg PUBLIC "-//W3C//DTD SVG 1.1//EN"
  "http://www.w3.org/Graphics/SVG/1.1/DTD/svg11.dtd">
<svg height="288pt" version="1.1" viewBox="0 0 432 288" width="432pt" xmlns="http://www.w3.org/2000/svg" xmlns:xlink="http://www.w3.org/1999/xlink">
 <metadata>
  <rdf:RDF xmlns:cc="http://creativecommons.org/ns#" xmlns:dc="http://purl.org/dc/elements/1.1/" xmlns:rdf="http://www.w3.org/1999/02/22-rdf-syntax-ns#">
   <cc:Work>
    <dc:type rdf:resource="http://purl.org/dc/dcmitype/StillImage"/>
    <dc:date>2022-05-13T23:53:13.578870</dc:date>
    <dc:format>image/svg+xml</dc:format>
    <dc:creator>
     <cc:Agent>
      <dc:title>Matplotlib v3.4.3, https://matplotlib.org/</dc:title>
     </cc:Agent>
    </dc:creator>
   </cc:Work>
  </rdf:RDF>
 </metadata>
 <defs>
  <style type="text/css">*{stroke-linecap:butt;stroke-linejoin:round;}</style>
 </defs>
 <g id="figure_1">
  <g id="patch_1">
   <path d="M 0 288 
L 432 288 
L 432 0 
L 0 0 
z
" style="fill:#ffffff;"/>
  </g>
  <g id="axes_1">
   <g id="patch_2">
    <path d="M 54 252 
L 388.8 252 
L 388.8 34.56 
L 54 34.56 
z
" style="fill:#ffffff;"/>
   </g>
   <g id="matplotlib.axis_1">
    <g id="xtick_1">
     <g id="line2d_1">
      <path clip-path="url(#p65c9f0047a)" d="M 69.218182 252 
L 69.218182 34.56 
" style="fill:none;stroke:#cccccc;stroke-linecap:round;stroke-width:0.8;"/>
     </g>
     <g id="text_1">
      <!-- 0 -->
      <g style="fill:#262626;" transform="translate(66.437713 266.157812)scale(0.1 -0.1)">
       <defs>
        <path d="M 266 2259 
Q 266 3072 433 3567 
Q 600 4063 929 4331 
Q 1259 4600 1759 4600 
Q 2128 4600 2406 4451 
Q 2684 4303 2865 4023 
Q 3047 3744 3150 3342 
Q 3253 2941 3253 2259 
Q 3253 1453 3087 958 
Q 2922 463 2592 192 
Q 2263 -78 1759 -78 
Q 1097 -78 719 397 
Q 266 969 266 2259 
z
M 844 2259 
Q 844 1131 1108 757 
Q 1372 384 1759 384 
Q 2147 384 2411 759 
Q 2675 1134 2675 2259 
Q 2675 3391 2411 3762 
Q 2147 4134 1753 4134 
Q 1366 4134 1134 3806 
Q 844 3388 844 2259 
z
" id="ArialMT-30" transform="scale(0.015625)"/>
       </defs>
       <use xlink:href="#ArialMT-30"/>
      </g>
     </g>
    </g>
    <g id="xtick_2">
     <g id="line2d_2">
      <path clip-path="url(#p65c9f0047a)" d="M 132.627273 252 
L 132.627273 34.56 
" style="fill:none;stroke:#cccccc;stroke-linecap:round;stroke-width:0.8;"/>
     </g>
     <g id="text_2">
      <!-- 5 -->
      <g style="fill:#262626;" transform="translate(129.846804 266.157812)scale(0.1 -0.1)">
       <defs>
        <path d="M 266 1200 
L 856 1250 
Q 922 819 1161 601 
Q 1400 384 1738 384 
Q 2144 384 2425 690 
Q 2706 997 2706 1503 
Q 2706 1984 2436 2262 
Q 2166 2541 1728 2541 
Q 1456 2541 1237 2417 
Q 1019 2294 894 2097 
L 366 2166 
L 809 4519 
L 3088 4519 
L 3088 3981 
L 1259 3981 
L 1013 2750 
Q 1425 3038 1878 3038 
Q 2478 3038 2890 2622 
Q 3303 2206 3303 1553 
Q 3303 931 2941 478 
Q 2500 -78 1738 -78 
Q 1113 -78 717 272 
Q 322 622 266 1200 
z
" id="ArialMT-35" transform="scale(0.015625)"/>
       </defs>
       <use xlink:href="#ArialMT-35"/>
      </g>
     </g>
    </g>
    <g id="xtick_3">
     <g id="line2d_3">
      <path clip-path="url(#p65c9f0047a)" d="M 196.036364 252 
L 196.036364 34.56 
" style="fill:none;stroke:#cccccc;stroke-linecap:round;stroke-width:0.8;"/>
     </g>
     <g id="text_3">
      <!-- 10 -->
      <g style="fill:#262626;" transform="translate(190.475426 266.157812)scale(0.1 -0.1)">
       <defs>
        <path d="M 2384 0 
L 1822 0 
L 1822 3584 
Q 1619 3391 1289 3197 
Q 959 3003 697 2906 
L 697 3450 
Q 1169 3672 1522 3987 
Q 1875 4303 2022 4600 
L 2384 4600 
L 2384 0 
z
" id="ArialMT-31" transform="scale(0.015625)"/>
       </defs>
       <use xlink:href="#ArialMT-31"/>
       <use x="55.615234" xlink:href="#ArialMT-30"/>
      </g>
     </g>
    </g>
    <g id="xtick_4">
     <g id="line2d_4">
      <path clip-path="url(#p65c9f0047a)" d="M 259.445455 252 
L 259.445455 34.56 
" style="fill:none;stroke:#cccccc;stroke-linecap:round;stroke-width:0.8;"/>
     </g>
     <g id="text_4">
      <!-- 15 -->
      <g style="fill:#262626;" transform="translate(253.884517 266.157812)scale(0.1 -0.1)">
       <use xlink:href="#ArialMT-31"/>
       <use x="55.615234" xlink:href="#ArialMT-35"/>
      </g>
     </g>
    </g>
    <g id="xtick_5">
     <g id="line2d_5">
      <path clip-path="url(#p65c9f0047a)" d="M 322.854545 252 
L 322.854545 34.56 
" style="fill:none;stroke:#cccccc;stroke-linecap:round;stroke-width:0.8;"/>
     </g>
     <g id="text_5">
      <!-- 20 -->
      <g style="fill:#262626;" transform="translate(317.293608 266.157812)scale(0.1 -0.1)">
       <defs>
        <path d="M 3222 541 
L 3222 0 
L 194 0 
Q 188 203 259 391 
Q 375 700 629 1000 
Q 884 1300 1366 1694 
Q 2113 2306 2375 2664 
Q 2638 3022 2638 3341 
Q 2638 3675 2398 3904 
Q 2159 4134 1775 4134 
Q 1369 4134 1125 3890 
Q 881 3647 878 3216 
L 300 3275 
Q 359 3922 746 4261 
Q 1134 4600 1788 4600 
Q 2447 4600 2831 4234 
Q 3216 3869 3216 3328 
Q 3216 3053 3103 2787 
Q 2991 2522 2730 2228 
Q 2469 1934 1863 1422 
Q 1356 997 1212 845 
Q 1069 694 975 541 
L 3222 541 
z
" id="ArialMT-32" transform="scale(0.015625)"/>
       </defs>
       <use xlink:href="#ArialMT-32"/>
       <use x="55.615234" xlink:href="#ArialMT-30"/>
      </g>
     </g>
    </g>
    <g id="xtick_6">
     <g id="line2d_6">
      <path clip-path="url(#p65c9f0047a)" d="M 386.263636 252 
L 386.263636 34.56 
" style="fill:none;stroke:#cccccc;stroke-linecap:round;stroke-width:0.8;"/>
     </g>
     <g id="text_6">
      <!-- 25 -->
      <g style="fill:#262626;" transform="translate(380.702699 266.157812)scale(0.1 -0.1)">
       <use xlink:href="#ArialMT-32"/>
       <use x="55.615234" xlink:href="#ArialMT-35"/>
      </g>
     </g>
    </g>
    <g id="text_7">
     <!-- Time in h -->
     <g style="fill:#262626;" transform="translate(201.027344 279.303125)scale(0.1 -0.1)">
      <defs>
       <path d="M 1659 0 
L 1659 4041 
L 150 4041 
L 150 4581 
L 3781 4581 
L 3781 4041 
L 2266 4041 
L 2266 0 
L 1659 0 
z
" id="ArialMT-54" transform="scale(0.015625)"/>
       <path d="M 425 3934 
L 425 4581 
L 988 4581 
L 988 3934 
L 425 3934 
z
M 425 0 
L 425 3319 
L 988 3319 
L 988 0 
L 425 0 
z
" id="ArialMT-69" transform="scale(0.015625)"/>
       <path d="M 422 0 
L 422 3319 
L 925 3319 
L 925 2853 
Q 1081 3097 1340 3245 
Q 1600 3394 1931 3394 
Q 2300 3394 2536 3241 
Q 2772 3088 2869 2813 
Q 3263 3394 3894 3394 
Q 4388 3394 4653 3120 
Q 4919 2847 4919 2278 
L 4919 0 
L 4359 0 
L 4359 2091 
Q 4359 2428 4304 2576 
Q 4250 2725 4106 2815 
Q 3963 2906 3769 2906 
Q 3419 2906 3187 2673 
Q 2956 2441 2956 1928 
L 2956 0 
L 2394 0 
L 2394 2156 
Q 2394 2531 2256 2718 
Q 2119 2906 1806 2906 
Q 1569 2906 1367 2781 
Q 1166 2656 1075 2415 
Q 984 2175 984 1722 
L 984 0 
L 422 0 
z
" id="ArialMT-6d" transform="scale(0.015625)"/>
       <path d="M 2694 1069 
L 3275 997 
Q 3138 488 2766 206 
Q 2394 -75 1816 -75 
Q 1088 -75 661 373 
Q 234 822 234 1631 
Q 234 2469 665 2931 
Q 1097 3394 1784 3394 
Q 2450 3394 2872 2941 
Q 3294 2488 3294 1666 
Q 3294 1616 3291 1516 
L 816 1516 
Q 847 969 1125 678 
Q 1403 388 1819 388 
Q 2128 388 2347 550 
Q 2566 713 2694 1069 
z
M 847 1978 
L 2700 1978 
Q 2663 2397 2488 2606 
Q 2219 2931 1791 2931 
Q 1403 2931 1139 2672 
Q 875 2413 847 1978 
z
" id="ArialMT-65" transform="scale(0.015625)"/>
       <path id="ArialMT-20" transform="scale(0.015625)"/>
       <path d="M 422 0 
L 422 3319 
L 928 3319 
L 928 2847 
Q 1294 3394 1984 3394 
Q 2284 3394 2536 3286 
Q 2788 3178 2913 3003 
Q 3038 2828 3088 2588 
Q 3119 2431 3119 2041 
L 3119 0 
L 2556 0 
L 2556 2019 
Q 2556 2363 2490 2533 
Q 2425 2703 2258 2804 
Q 2091 2906 1866 2906 
Q 1506 2906 1245 2678 
Q 984 2450 984 1813 
L 984 0 
L 422 0 
z
" id="ArialMT-6e" transform="scale(0.015625)"/>
       <path d="M 422 0 
L 422 4581 
L 984 4581 
L 984 2938 
Q 1378 3394 1978 3394 
Q 2347 3394 2619 3248 
Q 2891 3103 3008 2847 
Q 3125 2591 3125 2103 
L 3125 0 
L 2563 0 
L 2563 2103 
Q 2563 2525 2380 2717 
Q 2197 2909 1863 2909 
Q 1613 2909 1392 2779 
Q 1172 2650 1078 2428 
Q 984 2206 984 1816 
L 984 0 
L 422 0 
z
" id="ArialMT-68" transform="scale(0.015625)"/>
      </defs>
      <use xlink:href="#ArialMT-54"/>
      <use x="57.333984" xlink:href="#ArialMT-69"/>
      <use x="79.550781" xlink:href="#ArialMT-6d"/>
      <use x="162.851562" xlink:href="#ArialMT-65"/>
      <use x="218.466797" xlink:href="#ArialMT-20"/>
      <use x="246.25" xlink:href="#ArialMT-69"/>
      <use x="268.466797" xlink:href="#ArialMT-6e"/>
      <use x="324.082031" xlink:href="#ArialMT-20"/>
      <use x="351.865234" xlink:href="#ArialMT-68"/>
     </g>
    </g>
   </g>
   <g id="matplotlib.axis_2">
    <g id="ytick_1">
     <g id="line2d_7">
      <path clip-path="url(#p65c9f0047a)" d="M 54 230.066718 
L 388.8 230.066718 
" style="fill:none;stroke:#cccccc;stroke-linecap:round;stroke-width:0.8;"/>
     </g>
     <g id="text_8">
      <!-- 0 -->
      <g style="fill:#262626;" transform="translate(41.439062 233.645624)scale(0.1 -0.1)">
       <use xlink:href="#ArialMT-30"/>
      </g>
     </g>
    </g>
    <g id="ytick_2">
     <g id="line2d_8">
      <path clip-path="url(#p65c9f0047a)" d="M 54 181.834977 
L 388.8 181.834977 
" style="fill:none;stroke:#cccccc;stroke-linecap:round;stroke-width:0.8;"/>
     </g>
     <g id="text_9">
      <!-- 10 -->
      <g style="fill:#262626;" transform="translate(35.878125 185.413883)scale(0.1 -0.1)">
       <use xlink:href="#ArialMT-31"/>
       <use x="55.615234" xlink:href="#ArialMT-30"/>
      </g>
     </g>
    </g>
    <g id="ytick_3">
     <g id="line2d_9">
      <path clip-path="url(#p65c9f0047a)" d="M 54 133.603237 
L 388.8 133.603237 
" style="fill:none;stroke:#cccccc;stroke-linecap:round;stroke-width:0.8;"/>
     </g>
     <g id="text_10">
      <!-- 20 -->
      <g style="fill:#262626;" transform="translate(35.878125 137.182143)scale(0.1 -0.1)">
       <use xlink:href="#ArialMT-32"/>
       <use x="55.615234" xlink:href="#ArialMT-30"/>
      </g>
     </g>
    </g>
    <g id="ytick_4">
     <g id="line2d_10">
      <path clip-path="url(#p65c9f0047a)" d="M 54 85.371496 
L 388.8 85.371496 
" style="fill:none;stroke:#cccccc;stroke-linecap:round;stroke-width:0.8;"/>
     </g>
     <g id="text_11">
      <!-- 30 -->
      <g style="fill:#262626;" transform="translate(35.878125 88.950402)scale(0.1 -0.1)">
       <defs>
        <path d="M 269 1209 
L 831 1284 
Q 928 806 1161 595 
Q 1394 384 1728 384 
Q 2125 384 2398 659 
Q 2672 934 2672 1341 
Q 2672 1728 2419 1979 
Q 2166 2231 1775 2231 
Q 1616 2231 1378 2169 
L 1441 2663 
Q 1497 2656 1531 2656 
Q 1891 2656 2178 2843 
Q 2466 3031 2466 3422 
Q 2466 3731 2256 3934 
Q 2047 4138 1716 4138 
Q 1388 4138 1169 3931 
Q 950 3725 888 3313 
L 325 3413 
Q 428 3978 793 4289 
Q 1159 4600 1703 4600 
Q 2078 4600 2393 4439 
Q 2709 4278 2876 4000 
Q 3044 3722 3044 3409 
Q 3044 3113 2884 2869 
Q 2725 2625 2413 2481 
Q 2819 2388 3044 2092 
Q 3269 1797 3269 1353 
Q 3269 753 2831 336 
Q 2394 -81 1725 -81 
Q 1122 -81 723 278 
Q 325 638 269 1209 
z
" id="ArialMT-33" transform="scale(0.015625)"/>
       </defs>
       <use xlink:href="#ArialMT-33"/>
       <use x="55.615234" xlink:href="#ArialMT-30"/>
      </g>
     </g>
    </g>
    <g id="ytick_5">
     <g id="line2d_11">
      <path clip-path="url(#p65c9f0047a)" d="M 54 37.139755 
L 388.8 37.139755 
" style="fill:none;stroke:#cccccc;stroke-linecap:round;stroke-width:0.8;"/>
     </g>
     <g id="text_12">
      <!-- 40 -->
      <g style="fill:#262626;" transform="translate(35.878125 40.718662)scale(0.1 -0.1)">
       <defs>
        <path d="M 2069 0 
L 2069 1097 
L 81 1097 
L 81 1613 
L 2172 4581 
L 2631 4581 
L 2631 1613 
L 3250 1613 
L 3250 1097 
L 2631 1097 
L 2631 0 
L 2069 0 
z
M 2069 1613 
L 2069 3678 
L 634 1613 
L 2069 1613 
z
" id="ArialMT-34" transform="scale(0.015625)"/>
       </defs>
       <use xlink:href="#ArialMT-34"/>
       <use x="55.615234" xlink:href="#ArialMT-30"/>
      </g>
     </g>
    </g>
    <g id="text_13">
     <!-- Concentration in mmol/L -->
     <g style="fill:#262626;" transform="translate(29.890625 197.468281)rotate(-90)scale(0.1 -0.1)">
      <defs>
       <path d="M 3763 1606 
L 4369 1453 
Q 4178 706 3683 314 
Q 3188 -78 2472 -78 
Q 1731 -78 1267 223 
Q 803 525 561 1097 
Q 319 1669 319 2325 
Q 319 3041 592 3573 
Q 866 4106 1370 4382 
Q 1875 4659 2481 4659 
Q 3169 4659 3637 4309 
Q 4106 3959 4291 3325 
L 3694 3184 
Q 3534 3684 3231 3912 
Q 2928 4141 2469 4141 
Q 1941 4141 1586 3887 
Q 1231 3634 1087 3207 
Q 944 2781 944 2328 
Q 944 1744 1114 1308 
Q 1284 872 1643 656 
Q 2003 441 2422 441 
Q 2931 441 3284 734 
Q 3638 1028 3763 1606 
z
" id="ArialMT-43" transform="scale(0.015625)"/>
       <path d="M 213 1659 
Q 213 2581 725 3025 
Q 1153 3394 1769 3394 
Q 2453 3394 2887 2945 
Q 3322 2497 3322 1706 
Q 3322 1066 3130 698 
Q 2938 331 2570 128 
Q 2203 -75 1769 -75 
Q 1072 -75 642 372 
Q 213 819 213 1659 
z
M 791 1659 
Q 791 1022 1069 705 
Q 1347 388 1769 388 
Q 2188 388 2466 706 
Q 2744 1025 2744 1678 
Q 2744 2294 2464 2611 
Q 2184 2928 1769 2928 
Q 1347 2928 1069 2612 
Q 791 2297 791 1659 
z
" id="ArialMT-6f" transform="scale(0.015625)"/>
       <path d="M 2588 1216 
L 3141 1144 
Q 3050 572 2676 248 
Q 2303 -75 1759 -75 
Q 1078 -75 664 370 
Q 250 816 250 1647 
Q 250 2184 428 2587 
Q 606 2991 970 3192 
Q 1334 3394 1763 3394 
Q 2303 3394 2647 3120 
Q 2991 2847 3088 2344 
L 2541 2259 
Q 2463 2594 2264 2762 
Q 2066 2931 1784 2931 
Q 1359 2931 1093 2626 
Q 828 2322 828 1663 
Q 828 994 1084 691 
Q 1341 388 1753 388 
Q 2084 388 2306 591 
Q 2528 794 2588 1216 
z
" id="ArialMT-63" transform="scale(0.015625)"/>
       <path d="M 1650 503 
L 1731 6 
Q 1494 -44 1306 -44 
Q 1000 -44 831 53 
Q 663 150 594 308 
Q 525 466 525 972 
L 525 2881 
L 113 2881 
L 113 3319 
L 525 3319 
L 525 4141 
L 1084 4478 
L 1084 3319 
L 1650 3319 
L 1650 2881 
L 1084 2881 
L 1084 941 
Q 1084 700 1114 631 
Q 1144 563 1211 522 
Q 1278 481 1403 481 
Q 1497 481 1650 503 
z
" id="ArialMT-74" transform="scale(0.015625)"/>
       <path d="M 416 0 
L 416 3319 
L 922 3319 
L 922 2816 
Q 1116 3169 1280 3281 
Q 1444 3394 1641 3394 
Q 1925 3394 2219 3213 
L 2025 2691 
Q 1819 2813 1613 2813 
Q 1428 2813 1281 2702 
Q 1134 2591 1072 2394 
Q 978 2094 978 1738 
L 978 0 
L 416 0 
z
" id="ArialMT-72" transform="scale(0.015625)"/>
       <path d="M 2588 409 
Q 2275 144 1986 34 
Q 1697 -75 1366 -75 
Q 819 -75 525 192 
Q 231 459 231 875 
Q 231 1119 342 1320 
Q 453 1522 633 1644 
Q 813 1766 1038 1828 
Q 1203 1872 1538 1913 
Q 2219 1994 2541 2106 
Q 2544 2222 2544 2253 
Q 2544 2597 2384 2738 
Q 2169 2928 1744 2928 
Q 1347 2928 1158 2789 
Q 969 2650 878 2297 
L 328 2372 
Q 403 2725 575 2942 
Q 747 3159 1072 3276 
Q 1397 3394 1825 3394 
Q 2250 3394 2515 3294 
Q 2781 3194 2906 3042 
Q 3031 2891 3081 2659 
Q 3109 2516 3109 2141 
L 3109 1391 
Q 3109 606 3145 398 
Q 3181 191 3288 0 
L 2700 0 
Q 2613 175 2588 409 
z
M 2541 1666 
Q 2234 1541 1622 1453 
Q 1275 1403 1131 1340 
Q 988 1278 909 1158 
Q 831 1038 831 891 
Q 831 666 1001 516 
Q 1172 366 1500 366 
Q 1825 366 2078 508 
Q 2331 650 2450 897 
Q 2541 1088 2541 1459 
L 2541 1666 
z
" id="ArialMT-61" transform="scale(0.015625)"/>
       <path d="M 409 0 
L 409 4581 
L 972 4581 
L 972 0 
L 409 0 
z
" id="ArialMT-6c" transform="scale(0.015625)"/>
       <path d="M 0 -78 
L 1328 4659 
L 1778 4659 
L 453 -78 
L 0 -78 
z
" id="ArialMT-2f" transform="scale(0.015625)"/>
       <path d="M 469 0 
L 469 4581 
L 1075 4581 
L 1075 541 
L 3331 541 
L 3331 0 
L 469 0 
z
" id="ArialMT-4c" transform="scale(0.015625)"/>
      </defs>
      <use xlink:href="#ArialMT-43"/>
      <use x="72.216797" xlink:href="#ArialMT-6f"/>
      <use x="127.832031" xlink:href="#ArialMT-6e"/>
      <use x="183.447266" xlink:href="#ArialMT-63"/>
      <use x="233.447266" xlink:href="#ArialMT-65"/>
      <use x="289.0625" xlink:href="#ArialMT-6e"/>
      <use x="344.677734" xlink:href="#ArialMT-74"/>
      <use x="372.460938" xlink:href="#ArialMT-72"/>
      <use x="405.761719" xlink:href="#ArialMT-61"/>
      <use x="461.376953" xlink:href="#ArialMT-74"/>
      <use x="489.160156" xlink:href="#ArialMT-69"/>
      <use x="511.376953" xlink:href="#ArialMT-6f"/>
      <use x="566.992188" xlink:href="#ArialMT-6e"/>
      <use x="622.607422" xlink:href="#ArialMT-20"/>
      <use x="650.390625" xlink:href="#ArialMT-69"/>
      <use x="672.607422" xlink:href="#ArialMT-6e"/>
      <use x="728.222656" xlink:href="#ArialMT-20"/>
      <use x="756.005859" xlink:href="#ArialMT-6d"/>
      <use x="839.306641" xlink:href="#ArialMT-6d"/>
      <use x="922.607422" xlink:href="#ArialMT-6f"/>
      <use x="978.222656" xlink:href="#ArialMT-6c"/>
      <use x="1000.439453" xlink:href="#ArialMT-2f"/>
      <use x="1028.222656" xlink:href="#ArialMT-4c"/>
     </g>
    </g>
   </g>
   <g id="LineCollection_1">
    <path clip-path="url(#p65c9f0047a)" d="M 69.218182 44.443636 
L 69.218182 44.443636 
" style="fill:none;stroke:#000000;stroke-width:1.5;"/>
    <path clip-path="url(#p65c9f0047a)" d="M 75.559091 144.754407 
L 75.559091 134.638358 
" style="fill:none;stroke:#000000;stroke-width:1.5;"/>
    <path clip-path="url(#p65c9f0047a)" d="M 81.9 160.344046 
L 81.9 155.68289 
" style="fill:none;stroke:#000000;stroke-width:1.5;"/>
    <path clip-path="url(#p65c9f0047a)" d="M 94.581818 190.387581 
L 94.581818 184.53753 
" style="fill:none;stroke:#000000;stroke-width:1.5;"/>
    <path clip-path="url(#p65c9f0047a)" d="M 107.263636 211.384049 
L 107.263636 207.067711 
" style="fill:none;stroke:#000000;stroke-width:1.5;"/>
    <path clip-path="url(#p65c9f0047a)" d="M 119.945455 224.321557 
L 119.945455 222.142274 
" style="fill:none;stroke:#000000;stroke-width:1.5;"/>
    <path clip-path="url(#p65c9f0047a)" d="M 132.627273 229.35746 
L 132.627273 228.862598 
" style="fill:none;stroke:#000000;stroke-width:1.5;"/>
    <path clip-path="url(#p65c9f0047a)" d="M 145.309091 231.301659 
L 145.309091 230.806797 
" style="fill:none;stroke:#000000;stroke-width:1.5;"/>
    <path clip-path="url(#p65c9f0047a)" d="M 326.659091 232.861878 
L 326.659091 232.861878 
" style="fill:none;stroke:#000000;stroke-width:1.5;"/>
    <path clip-path="url(#p65c9f0047a)" d="M 373.581818 232.861878 
L 373.581818 232.861878 
" style="fill:none;stroke:#000000;stroke-width:1.5;"/>
   </g>
   <g id="LineCollection_2">
    <path clip-path="url(#p65c9f0047a)" d="M 69.218182 242.116364 
L 69.218182 242.116364 
" style="fill:none;stroke:#808080;stroke-width:1.5;"/>
    <path clip-path="url(#p65c9f0047a)" d="M 75.559091 216.299114 
L 75.559091 214.434632 
" style="fill:none;stroke:#808080;stroke-width:1.5;"/>
    <path clip-path="url(#p65c9f0047a)" d="M 81.9 197.587422 
L 81.9 195.045225 
" style="fill:none;stroke:#808080;stroke-width:1.5;"/>
    <path clip-path="url(#p65c9f0047a)" d="M 94.581818 167.592975 
L 94.581818 162.534976 
" style="fill:none;stroke:#808080;stroke-width:1.5;"/>
    <path clip-path="url(#p65c9f0047a)" d="M 107.263636 142.513271 
L 107.263636 140.00405 
" style="fill:none;stroke:#808080;stroke-width:1.5;"/>
    <path clip-path="url(#p65c9f0047a)" d="M 119.945455 122.539068 
L 119.945455 121.026964 
" style="fill:none;stroke:#808080;stroke-width:1.5;"/>
    <path clip-path="url(#p65c9f0047a)" d="M 132.627273 122.327332 
L 132.627273 110.627072 
" style="fill:none;stroke:#808080;stroke-width:1.5;"/>
    <path clip-path="url(#p65c9f0047a)" d="M 145.309091 115.201108 
L 145.309091 111.833456 
" style="fill:none;stroke:#808080;stroke-width:1.5;"/>
    <path clip-path="url(#p65c9f0047a)" d="M 326.659091 125.106662 
L 326.659091 119.246583 
" style="fill:none;stroke:#808080;stroke-width:1.5;"/>
    <path clip-path="url(#p65c9f0047a)" d="M 373.581818 128.894513 
L 373.581818 123.897653 
" style="fill:none;stroke:#808080;stroke-width:1.5;"/>
   </g>
   <g id="line2d_12">
    <defs>
     <path d="M 3 0 
L -3 -0 
" id="m8653f07ce7" style="stroke:#000000;"/>
    </defs>
    <g clip-path="url(#p65c9f0047a)">
     <use style="stroke:#000000;" x="69.218182" xlink:href="#m8653f07ce7" y="44.443636"/>
     <use style="stroke:#000000;" x="75.559091" xlink:href="#m8653f07ce7" y="144.754407"/>
     <use style="stroke:#000000;" x="81.9" xlink:href="#m8653f07ce7" y="160.344046"/>
     <use style="stroke:#000000;" x="94.581818" xlink:href="#m8653f07ce7" y="190.387581"/>
     <use style="stroke:#000000;" x="107.263636" xlink:href="#m8653f07ce7" y="211.384049"/>
     <use style="stroke:#000000;" x="119.945455" xlink:href="#m8653f07ce7" y="224.321557"/>
     <use style="stroke:#000000;" x="132.627273" xlink:href="#m8653f07ce7" y="229.35746"/>
     <use style="stroke:#000000;" x="145.309091" xlink:href="#m8653f07ce7" y="231.301659"/>
     <use style="stroke:#000000;" x="326.659091" xlink:href="#m8653f07ce7" y="232.861878"/>
     <use style="stroke:#000000;" x="373.581818" xlink:href="#m8653f07ce7" y="232.861878"/>
    </g>
   </g>
   <g id="line2d_13">
    <g clip-path="url(#p65c9f0047a)">
     <use style="stroke:#000000;" x="69.218182" xlink:href="#m8653f07ce7" y="44.443636"/>
     <use style="stroke:#000000;" x="75.559091" xlink:href="#m8653f07ce7" y="134.638358"/>
     <use style="stroke:#000000;" x="81.9" xlink:href="#m8653f07ce7" y="155.68289"/>
     <use style="stroke:#000000;" x="94.581818" xlink:href="#m8653f07ce7" y="184.53753"/>
     <use style="stroke:#000000;" x="107.263636" xlink:href="#m8653f07ce7" y="207.067711"/>
     <use style="stroke:#000000;" x="119.945455" xlink:href="#m8653f07ce7" y="222.142274"/>
     <use style="stroke:#000000;" x="132.627273" xlink:href="#m8653f07ce7" y="228.862598"/>
     <use style="stroke:#000000;" x="145.309091" xlink:href="#m8653f07ce7" y="230.806797"/>
     <use style="stroke:#000000;" x="326.659091" xlink:href="#m8653f07ce7" y="232.861878"/>
     <use style="stroke:#000000;" x="373.581818" xlink:href="#m8653f07ce7" y="232.861878"/>
    </g>
   </g>
   <g id="line2d_14">
    <defs>
     <path d="M 3 0 
L -3 -0 
" id="m2624b71bd5" style="stroke:#808080;"/>
    </defs>
    <g clip-path="url(#p65c9f0047a)">
     <use style="fill:#808080;stroke:#808080;" x="69.218182" xlink:href="#m2624b71bd5" y="242.116364"/>
     <use style="fill:#808080;stroke:#808080;" x="75.559091" xlink:href="#m2624b71bd5" y="216.299114"/>
     <use style="fill:#808080;stroke:#808080;" x="81.9" xlink:href="#m2624b71bd5" y="197.587422"/>
     <use style="fill:#808080;stroke:#808080;" x="94.581818" xlink:href="#m2624b71bd5" y="167.592975"/>
     <use style="fill:#808080;stroke:#808080;" x="107.263636" xlink:href="#m2624b71bd5" y="142.513271"/>
     <use style="fill:#808080;stroke:#808080;" x="119.945455" xlink:href="#m2624b71bd5" y="122.539068"/>
     <use style="fill:#808080;stroke:#808080;" x="132.627273" xlink:href="#m2624b71bd5" y="122.327332"/>
     <use style="fill:#808080;stroke:#808080;" x="145.309091" xlink:href="#m2624b71bd5" y="115.201108"/>
     <use style="fill:#808080;stroke:#808080;" x="326.659091" xlink:href="#m2624b71bd5" y="125.106662"/>
     <use style="fill:#808080;stroke:#808080;" x="373.581818" xlink:href="#m2624b71bd5" y="128.894513"/>
    </g>
   </g>
   <g id="line2d_15">
    <g clip-path="url(#p65c9f0047a)">
     <use style="fill:#808080;stroke:#808080;" x="69.218182" xlink:href="#m2624b71bd5" y="242.116364"/>
     <use style="fill:#808080;stroke:#808080;" x="75.559091" xlink:href="#m2624b71bd5" y="214.434632"/>
     <use style="fill:#808080;stroke:#808080;" x="81.9" xlink:href="#m2624b71bd5" y="195.045225"/>
     <use style="fill:#808080;stroke:#808080;" x="94.581818" xlink:href="#m2624b71bd5" y="162.534976"/>
     <use style="fill:#808080;stroke:#808080;" x="107.263636" xlink:href="#m2624b71bd5" y="140.00405"/>
     <use style="fill:#808080;stroke:#808080;" x="119.945455" xlink:href="#m2624b71bd5" y="121.026964"/>
     <use style="fill:#808080;stroke:#808080;" x="132.627273" xlink:href="#m2624b71bd5" y="110.627072"/>
     <use style="fill:#808080;stroke:#808080;" x="145.309091" xlink:href="#m2624b71bd5" y="111.833456"/>
     <use style="fill:#808080;stroke:#808080;" x="326.659091" xlink:href="#m2624b71bd5" y="119.246583"/>
     <use style="fill:#808080;stroke:#808080;" x="373.581818" xlink:href="#m2624b71bd5" y="123.897653"/>
    </g>
   </g>
   <g id="line2d_16">
    <path clip-path="url(#p65c9f0047a)" d="M 157.990909 252 
L 157.990909 34.56 
" style="fill:none;stroke:#000000;stroke-dasharray:5.55,2.4;stroke-dashoffset:0;stroke-width:1.5;"/>
   </g>
   <g id="line2d_17">
    <defs>
     <path d="M 0 1.75 
C 0.464105 1.75 0.909265 1.565609 1.237437 1.237437 
C 1.565609 0.909265 1.75 0.464105 1.75 0 
C 1.75 -0.464105 1.565609 -0.909265 1.237437 -1.237437 
C 0.909265 -1.565609 0.464105 -1.75 0 -1.75 
C -0.464105 -1.75 -0.909265 -1.565609 -1.237437 -1.237437 
C -1.565609 -0.909265 -1.75 -0.464105 -1.75 0 
C -1.75 0.464105 -1.565609 0.909265 -1.237437 1.237437 
C -0.909265 1.565609 -0.464105 1.75 0 1.75 
z
" id="mcbdfa90ad4" style="stroke:#000000;"/>
    </defs>
    <g clip-path="url(#p65c9f0047a)">
     <use style="stroke:#000000;" x="69.218182" xlink:href="#mcbdfa90ad4" y="44.443636"/>
     <use style="stroke:#000000;" x="75.559091" xlink:href="#mcbdfa90ad4" y="139.696382"/>
     <use style="stroke:#000000;" x="81.9" xlink:href="#mcbdfa90ad4" y="158.013468"/>
     <use style="stroke:#000000;" x="94.581818" xlink:href="#mcbdfa90ad4" y="187.462555"/>
     <use style="stroke:#000000;" x="107.263636" xlink:href="#mcbdfa90ad4" y="209.22588"/>
     <use style="stroke:#000000;" x="119.945455" xlink:href="#mcbdfa90ad4" y="223.231916"/>
     <use style="stroke:#000000;" x="132.627273" xlink:href="#mcbdfa90ad4" y="229.110029"/>
     <use style="stroke:#000000;" x="145.309091" xlink:href="#mcbdfa90ad4" y="231.054228"/>
     <use style="stroke:#000000;" x="326.659091" xlink:href="#mcbdfa90ad4" y="232.861878"/>
     <use style="stroke:#000000;" x="373.581818" xlink:href="#mcbdfa90ad4" y="232.861878"/>
    </g>
   </g>
   <g id="line2d_18">
    <defs>
     <path d="M -3 3 
L 3 3 
L 3 -3 
L -3 -3 
z
" id="m0cd55c54c0" style="stroke:#808080;stroke-linejoin:miter;"/>
    </defs>
    <g clip-path="url(#p65c9f0047a)">
     <use style="fill:#808080;stroke:#808080;stroke-linejoin:miter;" x="69.218182" xlink:href="#m0cd55c54c0" y="242.116364"/>
     <use style="fill:#808080;stroke:#808080;stroke-linejoin:miter;" x="75.559091" xlink:href="#m0cd55c54c0" y="215.366873"/>
     <use style="fill:#808080;stroke:#808080;stroke-linejoin:miter;" x="81.9" xlink:href="#m0cd55c54c0" y="196.316323"/>
     <use style="fill:#808080;stroke:#808080;stroke-linejoin:miter;" x="94.581818" xlink:href="#m0cd55c54c0" y="165.063975"/>
     <use style="fill:#808080;stroke:#808080;stroke-linejoin:miter;" x="107.263636" xlink:href="#m0cd55c54c0" y="141.258661"/>
     <use style="fill:#808080;stroke:#808080;stroke-linejoin:miter;" x="119.945455" xlink:href="#m0cd55c54c0" y="121.783016"/>
     <use style="fill:#808080;stroke:#808080;stroke-linejoin:miter;" x="132.627273" xlink:href="#m0cd55c54c0" y="116.477202"/>
     <use style="fill:#808080;stroke:#808080;stroke-linejoin:miter;" x="145.309091" xlink:href="#m0cd55c54c0" y="113.517282"/>
     <use style="fill:#808080;stroke:#808080;stroke-linejoin:miter;" x="326.659091" xlink:href="#m0cd55c54c0" y="122.176623"/>
     <use style="fill:#808080;stroke:#808080;stroke-linejoin:miter;" x="373.581818" xlink:href="#m0cd55c54c0" y="126.396083"/>
    </g>
   </g>
   <g id="patch_3">
    <path d="M 54 252 
L 54 34.56 
" style="fill:none;stroke:#cccccc;stroke-linecap:square;stroke-linejoin:miter;stroke-width:0.8;"/>
   </g>
   <g id="patch_4">
    <path d="M 388.8 252 
L 388.8 34.56 
" style="fill:none;stroke:#cccccc;stroke-linecap:square;stroke-linejoin:miter;stroke-width:0.8;"/>
   </g>
   <g id="patch_5">
    <path d="M 54 252 
L 388.8 252 
" style="fill:none;stroke:#cccccc;stroke-linecap:square;stroke-linejoin:miter;stroke-width:0.8;"/>
   </g>
   <g id="patch_6">
    <path d="M 54 34.56 
L 388.8 34.56 
" style="fill:none;stroke:#cccccc;stroke-linecap:square;stroke-linejoin:miter;stroke-width:0.8;"/>
   </g>
  </g>
 </g>
 <defs>
  <clipPath id="p65c9f0047a">
   <rect height="217.44" width="334.8" x="54" y="34.56"/>
  </clipPath>
 </defs>
</svg>
